Coordinates
version=1
nRows=10
nColumns=34
inDegrees=yes

Units are S.I. units (second, meters, Newtons, ...)
If the header above contains a line with 'inDegrees', this indicates whether rotational values are in degrees (yes) or radians (no).

endheader
time	pelvis_tilt	pelvis_list	pelvis_rotation	pelvis_tx	pelvis_ty	pelvis_tz	hip_flexion_r	hip_adduction_r	hip_rotation_r	knee_angle_r	ankle_angle_r	subtalar_angle_r	mtp_angle_r	hip_flexion_l	hip_adduction_l	hip_rotation_l	knee_angle_l	ankle_angle_l	subtalar_angle_l	mtp_angle_l	lumbar_extension	lumbar_bending	lumbar_rotation	arm_flex_r	arm_add_r	arm_rot_r	elbow_flex_r	pro_sup_r	arm_flex_l	arm_add_l	arm_rot_l	elbow_flex_l	pro_sup_l
      5.23333330	    -13.31204103	      0.71716438	     -9.37428548	     -0.15616532	      1.15332054	     -0.18582391	      7.44404953	      3.22669122	     -8.99028972	      0.00000000	      4.81083712	      4.29198899	      0.00000000	      6.10691012	      2.44872650	     -6.10569795	      0.00000000	      2.43322727	      0.14076965	      0.00000000	     11.14243838	      0.64628756	      3.69364597	     -3.66796185	     -8.70234780	     24.30387967	     36.44532770	     72.42640948	     -0.09968962	     -9.49911559	     20.89097909	     34.54545487	     83.92113654
      5.25000000	    -13.36075613	      0.67157828	     -9.43388210	     -0.15538063	      1.15409700	     -0.18529351	      7.47925240	      3.27589777	     -8.86637043	      0.00000000	      4.91572034	      4.25859560	      0.00000000	      6.20252082	      2.42259385	     -5.96188341	      0.00000000	      2.75496164	      0.07576890	      0.00000000	     11.06787825	      0.79908696	      3.78912210	     -3.37165160	     -8.82839720	     24.30175750	     36.52446349	     72.43242064	     -0.03334838	     -9.48934426	     20.91762155	     34.62730106	     83.94926755
      5.26666670	    -13.36230621	      0.66459884	     -9.43403571	     -0.15619158	      1.15587306	     -0.18563959	      7.44575454	      3.27855053	     -8.86177603	      0.00000000	      4.91355439	      4.25918641	      0.00000000	      6.23621355	      2.42411143	     -5.96153645	      0.00000000	      2.75987936	      0.07344502	      0.00000000	     11.07041063	      0.80078517	      3.79163497	     -3.37244421	     -8.82797122	     24.30348589	     36.52530241	     72.43271398	     -0.03631371	     -9.49118525	     20.91827479	     34.62816174	     83.95000203
      5.28333330	    -13.39655264	      0.65116242	     -9.42534371	     -0.15437122	      1.15639447	     -0.18607381	      7.40835716	      3.26570005	     -8.85886470	      0.00958199	      4.90318442	      4.25937564	      0.00000000	      6.24014737	      2.41971447	     -5.96507702	      0.00000000	      2.75886217	      0.06961397	      0.00000000	     11.07035936	      0.80764950	      3.80095918	     -3.36329797	     -8.82690889	     24.30489475	     36.52818296	     72.43306341	     -0.03815674	     -9.49540457	     20.91838598	     34.62936756	     83.95087929
      5.30000000	    -13.32943075	      0.55551654	     -9.26715743	     -0.14928134	      1.15720653	     -0.18435750	      7.16823614	      3.33035640	     -8.88087074	      0.00000000	      4.55216739	      4.26624675	      0.00000000	      5.93505645	      2.33161764	     -6.16164400	      0.00000000	      2.59577728	     -0.06320850	      0.00000000	     11.26183557	      0.90716080	      3.84539449	     -3.53661534	     -8.82381041	     24.35983445	     36.50868821	     72.44083219	     -0.17992798	     -9.54397607	     20.93795667	     34.65470938	     83.97292923
      5.31666670	    -13.35712481	      0.54878731	     -9.26985050	     -0.15427539	      1.15864441	     -0.18606329	      7.14297085	      3.30959779	     -8.88401445	      0.00000000	      4.54351929	      4.26630573	      0.00000000	      5.93612240	      2.32239340	     -6.16478234	      0.00000000	      2.59306870	     -0.06642807	      0.00000000	     11.26432212	      0.91165370	      3.85471730	     -3.53740172	     -8.82316490	     24.36125067	     36.50948553	     72.44108484	     -0.19306026	     -9.54749386	     20.93899165	     34.65341706	     83.97371370
      5.33333330	    -13.36764955	      0.52995300	     -9.27519930	     -0.15503283	      1.15589841	     -0.18670717	      7.10736513	      3.29112846	     -8.89272539	      0.00161168	      4.52864458	      4.26438059	      0.00000000	      5.95698835	      2.33107950	     -6.16873826	      0.00000000	      2.58585871	     -0.06946239	      0.00000000	     11.25968577	      0.92050849	      3.86860790	     -3.52512383	     -8.82385744	     24.36119393	     36.51216692	     72.44123766	     -0.20072135	     -9.55119208	     20.93931454	     34.65330247	     83.97446518
      5.35000000	    -13.35278141	      0.52200813	     -9.33579202	     -0.15328363	      1.15623570	     -0.18657954	      7.10940577	      3.25909272	     -9.34495649	      0.00000000	      3.74351325	      4.15046542	      0.00000000	      5.92180392	      2.35854006	     -6.48798218	      0.00000000	      2.21274528	     -0.34397631	      0.00000000	     11.15028719	      1.01316520	      4.11294555	     -3.36744499	     -8.97057717	     24.38315368	     36.53829762	     72.44877271	     -0.25601236	     -9.52722726	     20.96671262	     34.82793421	     84.02197523
      5.36666670	    -13.35158042	      0.50751304	     -9.35981231	     -0.15436697	      1.15712320	     -0.18665217	      7.07377954	      3.24329210	     -9.34977172	      0.00000000	      3.74022821	      4.14794951	      0.00000000	      5.96221928	      2.36635078	     -6.47977260	      0.00000000	      2.21311034	     -0.34349412	      0.00000000	     11.15208906	      1.01922338	      4.11688370	     -3.36716341	     -8.96945300	     24.38412543	     36.53925638	     72.44891742	     -0.25896269	     -9.53059664	     20.96649227	     34.82922041	     84.02261486
      5.38333330	    -13.33172141	      0.53635248	     -9.46790462	     -0.15319210	      1.15631525	     -0.18592066	      7.12413747	      3.21845566	     -9.39639376	      0.00000000	      3.72758400	      4.11521449	      0.00000000	      5.95897298	      2.39996053	     -6.37093884	      0.00000000	      2.20826720	     -0.32981301	      0.00000000	     11.12596530	      1.08746973	      4.21501588	     -3.30592884	     -8.97154777	     24.38702583	     36.55586652	     72.44999420	     -0.32300572	     -9.57703662	     20.96399492	     34.83166803	     84.02941053
